<mxfile host="Electron" modified="2024-02-26T03:54:36.373Z" agent="Mozilla/5.0 (Windows NT 10.0; Win64; x64) AppleWebKit/537.36 (KHTML, like Gecko) draw.io/23.1.5 Chrome/120.0.6099.109 Electron/28.1.0 Safari/537.36" etag="Nx5w8B35fkBRrJ2zVecT" version="23.1.5" type="device">
  <diagram name="Страница — 1" id="CkAMB3MqrcCDIJDg5A5i">
    <mxGraphModel dx="1434" dy="2013" grid="1" gridSize="10" guides="1" tooltips="1" connect="1" arrows="1" fold="1" page="1" pageScale="1" pageWidth="827" pageHeight="1169" math="0" shadow="0">
      <root>
        <mxCell id="0" />
        <mxCell id="1" parent="0" />
        <mxCell id="Df2dGC7cskyAeFQfV9ru-1" value="начало" style="ellipse;whiteSpace=wrap;html=1;" parent="1" vertex="1">
          <mxGeometry x="340" width="120" height="30" as="geometry" />
        </mxCell>
        <mxCell id="Df2dGC7cskyAeFQfV9ru-2" value="" style="endArrow=classic;html=1;rounded=0;entryX=0.5;entryY=0;entryDx=0;entryDy=0;" parent="1" target="Df2dGC7cskyAeFQfV9ru-5" edge="1">
          <mxGeometry width="50" height="50" relative="1" as="geometry">
            <mxPoint x="399.5" y="30" as="sourcePoint" />
            <mxPoint x="400" y="200" as="targetPoint" />
          </mxGeometry>
        </mxCell>
        <mxCell id="Df2dGC7cskyAeFQfV9ru-3" value="" style="endArrow=none;html=1;rounded=0;" parent="1" edge="1">
          <mxGeometry width="50" height="50" relative="1" as="geometry">
            <mxPoint x="400" y="80" as="sourcePoint" />
            <mxPoint x="520" y="80" as="targetPoint" />
          </mxGeometry>
        </mxCell>
        <mxCell id="Df2dGC7cskyAeFQfV9ru-4" value="&lt;div&gt;#include &amp;lt;iostream&amp;gt;&lt;/div&gt;&lt;div&gt;using namespace std;&lt;/div&gt;&lt;div&gt;int IterationsCounter = 0;&amp;nbsp;&lt;/div&gt;&lt;div&gt;int board[500][500];&lt;/div&gt;&lt;div&gt;&lt;br&gt;&lt;/div&gt;&lt;div&gt;bool PutQueens(int row, int n, int rootId) {&lt;br&gt;&lt;/div&gt;&lt;div&gt;int id;&lt;br&gt;&lt;/div&gt;&lt;div&gt;&lt;div&gt;bool result = false;&amp;nbsp;&lt;/div&gt;&lt;div&gt;&amp;nbsp; &amp;nbsp; bool flag = false;&amp;nbsp;&lt;/div&gt;&lt;div&gt;&amp;nbsp; &amp;nbsp; int *availablePlaces = new int[n];&lt;/div&gt;&lt;/div&gt;&lt;div&gt;int place;&lt;/div&gt;&lt;div&gt;&lt;br&gt;&lt;/div&gt;" style="rounded=0;whiteSpace=wrap;html=1;" parent="1" vertex="1">
          <mxGeometry x="520" width="230" height="170" as="geometry" />
        </mxCell>
        <mxCell id="Df2dGC7cskyAeFQfV9ru-7" style="edgeStyle=orthogonalEdgeStyle;rounded=0;orthogonalLoop=1;jettySize=auto;html=1;entryX=0.5;entryY=0;entryDx=0;entryDy=0;" parent="1" source="Df2dGC7cskyAeFQfV9ru-5" target="Df2dGC7cskyAeFQfV9ru-6" edge="1">
          <mxGeometry relative="1" as="geometry" />
        </mxCell>
        <mxCell id="Df2dGC7cskyAeFQfV9ru-5" value="for (int i = 0; i &amp;lt; n; i++)" style="shape=hexagon;perimeter=hexagonPerimeter2;whiteSpace=wrap;html=1;fixedSize=1;" parent="1" vertex="1">
          <mxGeometry x="330" y="195" width="140" height="30" as="geometry" />
        </mxCell>
        <mxCell id="Df2dGC7cskyAeFQfV9ru-6" value="availablePlaces[i] = board[row][i] == 0 ? i : -1;" style="rounded=0;whiteSpace=wrap;html=1;" parent="1" vertex="1">
          <mxGeometry x="275" y="250" width="250" height="20" as="geometry" />
        </mxCell>
        <mxCell id="Df2dGC7cskyAeFQfV9ru-8" value="" style="endArrow=none;html=1;rounded=0;" parent="1" edge="1">
          <mxGeometry width="50" height="50" relative="1" as="geometry">
            <mxPoint x="399.71" y="270" as="sourcePoint" />
            <mxPoint x="400" y="320" as="targetPoint" />
          </mxGeometry>
        </mxCell>
        <mxCell id="Df2dGC7cskyAeFQfV9ru-9" value="" style="endArrow=none;html=1;rounded=0;" parent="1" edge="1">
          <mxGeometry width="50" height="50" relative="1" as="geometry">
            <mxPoint x="240" y="320" as="sourcePoint" />
            <mxPoint x="400" y="320" as="targetPoint" />
          </mxGeometry>
        </mxCell>
        <mxCell id="Df2dGC7cskyAeFQfV9ru-10" value="" style="endArrow=none;html=1;rounded=0;" parent="1" edge="1">
          <mxGeometry width="50" height="50" relative="1" as="geometry">
            <mxPoint x="240" y="320" as="sourcePoint" />
            <mxPoint x="240" y="210" as="targetPoint" />
          </mxGeometry>
        </mxCell>
        <mxCell id="Df2dGC7cskyAeFQfV9ru-11" value="" style="endArrow=classic;html=1;rounded=0;" parent="1" edge="1">
          <mxGeometry width="50" height="50" relative="1" as="geometry">
            <mxPoint x="240" y="210" as="sourcePoint" />
            <mxPoint x="330" y="209.71" as="targetPoint" />
          </mxGeometry>
        </mxCell>
        <mxCell id="Df2dGC7cskyAeFQfV9ru-12" value="1" style="text;strokeColor=none;fillColor=none;align=left;verticalAlign=middle;spacingLeft=4;spacingRight=4;overflow=hidden;points=[[0,0.5],[1,0.5]];portConstraint=eastwest;rotatable=0;whiteSpace=wrap;html=1;" parent="1" vertex="1">
          <mxGeometry x="370" y="225" width="80" height="30" as="geometry" />
        </mxCell>
        <mxCell id="Df2dGC7cskyAeFQfV9ru-13" value="{" style="text;html=1;align=center;verticalAlign=middle;whiteSpace=wrap;rounded=0;" parent="1" vertex="1">
          <mxGeometry x="390" y="225" width="60" height="30" as="geometry" />
        </mxCell>
        <mxCell id="Df2dGC7cskyAeFQfV9ru-14" value="}" style="text;html=1;align=center;verticalAlign=middle;whiteSpace=wrap;rounded=0;" parent="1" vertex="1">
          <mxGeometry x="390" y="280" width="60" height="30" as="geometry" />
        </mxCell>
        <mxCell id="Df2dGC7cskyAeFQfV9ru-15" value="" style="endArrow=none;html=1;rounded=0;" parent="1" edge="1">
          <mxGeometry width="50" height="50" relative="1" as="geometry">
            <mxPoint x="470" y="209.8" as="sourcePoint" />
            <mxPoint x="720" y="210" as="targetPoint" />
          </mxGeometry>
        </mxCell>
        <mxCell id="Df2dGC7cskyAeFQfV9ru-16" value="" style="endArrow=classic;html=1;rounded=0;" parent="1" edge="1">
          <mxGeometry width="50" height="50" relative="1" as="geometry">
            <mxPoint x="720" y="210" as="sourcePoint" />
            <mxPoint x="720" y="240" as="targetPoint" />
          </mxGeometry>
        </mxCell>
        <mxCell id="Df2dGC7cskyAeFQfV9ru-19" style="edgeStyle=orthogonalEdgeStyle;rounded=0;orthogonalLoop=1;jettySize=auto;html=1;entryX=0.5;entryY=0;entryDx=0;entryDy=0;" parent="1" source="Df2dGC7cskyAeFQfV9ru-17" target="Df2dGC7cskyAeFQfV9ru-18" edge="1">
          <mxGeometry relative="1" as="geometry" />
        </mxCell>
        <mxCell id="Df2dGC7cskyAeFQfV9ru-17" value="while (!result &amp;amp;&amp;amp; safeCheck(&amp;amp;availablePlaces[0], n))" style="rhombus;whiteSpace=wrap;html=1;" parent="1" vertex="1">
          <mxGeometry x="560" y="240" width="320" height="80" as="geometry" />
        </mxCell>
        <mxCell id="Df2dGC7cskyAeFQfV9ru-21" style="edgeStyle=orthogonalEdgeStyle;rounded=0;orthogonalLoop=1;jettySize=auto;html=1;entryX=0.5;entryY=0;entryDx=0;entryDy=0;" parent="1" source="Df2dGC7cskyAeFQfV9ru-18" target="Df2dGC7cskyAeFQfV9ru-20" edge="1">
          <mxGeometry relative="1" as="geometry" />
        </mxCell>
        <mxCell id="Df2dGC7cskyAeFQfV9ru-18" value="do" style="rounded=0;whiteSpace=wrap;html=1;" parent="1" vertex="1">
          <mxGeometry x="705" y="350" width="30" height="20" as="geometry" />
        </mxCell>
        <mxCell id="Df2dGC7cskyAeFQfV9ru-23" style="edgeStyle=orthogonalEdgeStyle;rounded=0;orthogonalLoop=1;jettySize=auto;html=1;entryX=0.5;entryY=0;entryDx=0;entryDy=0;" parent="1" source="Df2dGC7cskyAeFQfV9ru-20" target="Df2dGC7cskyAeFQfV9ru-22" edge="1">
          <mxGeometry relative="1" as="geometry" />
        </mxCell>
        <mxCell id="Df2dGC7cskyAeFQfV9ru-20" value="place = availablePlaces[rand() % n];" style="rounded=0;whiteSpace=wrap;html=1;" parent="1" vertex="1">
          <mxGeometry x="620" y="390" width="200" height="20" as="geometry" />
        </mxCell>
        <mxCell id="Df2dGC7cskyAeFQfV9ru-32" style="edgeStyle=orthogonalEdgeStyle;rounded=0;orthogonalLoop=1;jettySize=auto;html=1;entryX=0.5;entryY=0;entryDx=0;entryDy=0;" parent="1" source="Df2dGC7cskyAeFQfV9ru-22" target="Df2dGC7cskyAeFQfV9ru-31" edge="1">
          <mxGeometry relative="1" as="geometry" />
        </mxCell>
        <mxCell id="Df2dGC7cskyAeFQfV9ru-22" value="while (place == -1);" style="rhombus;whiteSpace=wrap;html=1;" parent="1" vertex="1">
          <mxGeometry x="660" y="440" width="120" height="50" as="geometry" />
        </mxCell>
        <mxCell id="Df2dGC7cskyAeFQfV9ru-24" value="" style="endArrow=none;html=1;rounded=0;" parent="1" edge="1">
          <mxGeometry width="50" height="50" relative="1" as="geometry">
            <mxPoint x="560" y="465" as="sourcePoint" />
            <mxPoint x="660" y="464.71" as="targetPoint" />
          </mxGeometry>
        </mxCell>
        <mxCell id="Df2dGC7cskyAeFQfV9ru-25" value="" style="endArrow=none;html=1;rounded=0;" parent="1" edge="1">
          <mxGeometry width="50" height="50" relative="1" as="geometry">
            <mxPoint x="560" y="465" as="sourcePoint" />
            <mxPoint x="560" y="360" as="targetPoint" />
          </mxGeometry>
        </mxCell>
        <mxCell id="Df2dGC7cskyAeFQfV9ru-26" value="" style="endArrow=classic;html=1;rounded=0;entryX=0;entryY=0.5;entryDx=0;entryDy=0;" parent="1" target="Df2dGC7cskyAeFQfV9ru-18" edge="1">
          <mxGeometry width="50" height="50" relative="1" as="geometry">
            <mxPoint x="560" y="359.71" as="sourcePoint" />
            <mxPoint x="640" y="359.71" as="targetPoint" />
          </mxGeometry>
        </mxCell>
        <mxCell id="Df2dGC7cskyAeFQfV9ru-28" value="1" style="text;html=1;align=center;verticalAlign=middle;whiteSpace=wrap;rounded=0;" parent="1" vertex="1">
          <mxGeometry x="620" y="430" width="60" height="30" as="geometry" />
        </mxCell>
        <mxCell id="Df2dGC7cskyAeFQfV9ru-29" value="{" style="text;html=1;align=center;verticalAlign=middle;whiteSpace=wrap;rounded=0;" parent="1" vertex="1">
          <mxGeometry x="710" y="360" width="60" height="30" as="geometry" />
        </mxCell>
        <mxCell id="Df2dGC7cskyAeFQfV9ru-30" value="}" style="text;html=1;align=center;verticalAlign=middle;whiteSpace=wrap;rounded=0;" parent="1" vertex="1">
          <mxGeometry x="710" y="410" width="60" height="30" as="geometry" />
        </mxCell>
        <mxCell id="Df2dGC7cskyAeFQfV9ru-35" style="edgeStyle=orthogonalEdgeStyle;rounded=0;orthogonalLoop=1;jettySize=auto;html=1;entryX=0.5;entryY=0;entryDx=0;entryDy=0;" parent="1" source="Df2dGC7cskyAeFQfV9ru-31" target="Df2dGC7cskyAeFQfV9ru-34" edge="1">
          <mxGeometry relative="1" as="geometry" />
        </mxCell>
        <mxCell id="Df2dGC7cskyAeFQfV9ru-31" value="cout &amp;lt;&amp;lt; &quot;Случайным образом выбрана позиция для постановки новой королевы: &quot; &amp;lt;&amp;lt; row + 1 &amp;lt;&amp;lt; &quot;:&quot; &amp;lt;&amp;lt; place + 1 &amp;lt;&amp;lt; endl;" style="shape=parallelogram;perimeter=parallelogramPerimeter;whiteSpace=wrap;html=1;fixedSize=1;" parent="1" vertex="1">
          <mxGeometry x="615" y="520" width="210" height="95" as="geometry" />
        </mxCell>
        <mxCell id="Df2dGC7cskyAeFQfV9ru-33" value="0" style="text;html=1;align=center;verticalAlign=middle;whiteSpace=wrap;rounded=0;" parent="1" vertex="1">
          <mxGeometry x="705" y="490" width="60" height="30" as="geometry" />
        </mxCell>
        <mxCell id="ceVg9Vy0MgQLvTK81oMa-2" style="edgeStyle=orthogonalEdgeStyle;rounded=0;orthogonalLoop=1;jettySize=auto;html=1;entryX=0.5;entryY=0;entryDx=0;entryDy=0;" edge="1" parent="1" source="Df2dGC7cskyAeFQfV9ru-34" target="ceVg9Vy0MgQLvTK81oMa-1">
          <mxGeometry relative="1" as="geometry" />
        </mxCell>
        <mxCell id="Df2dGC7cskyAeFQfV9ru-34" value="setQueen(row, place, n);" style="shape=process;whiteSpace=wrap;html=1;backgroundOutline=1;" parent="1" vertex="1">
          <mxGeometry x="635" y="640" width="170" height="30" as="geometry" />
        </mxCell>
        <mxCell id="Df2dGC7cskyAeFQfV9ru-36" value="if (row == (n - 1))" style="rhombus;whiteSpace=wrap;html=1;" parent="1" vertex="1">
          <mxGeometry x="655.5" y="822" width="130" height="50" as="geometry" />
        </mxCell>
        <mxCell id="Df2dGC7cskyAeFQfV9ru-38" value="" style="endArrow=none;html=1;rounded=0;" parent="1" edge="1">
          <mxGeometry width="50" height="50" relative="1" as="geometry">
            <mxPoint x="600.5" y="847.55" as="sourcePoint" />
            <mxPoint x="655.5" y="847.31" as="targetPoint" />
          </mxGeometry>
        </mxCell>
        <mxCell id="Df2dGC7cskyAeFQfV9ru-39" value="" style="endArrow=classic;html=1;rounded=0;" parent="1" edge="1">
          <mxGeometry width="50" height="50" relative="1" as="geometry">
            <mxPoint x="600.5" y="842" as="sourcePoint" />
            <mxPoint x="600.5" y="872" as="targetPoint" />
          </mxGeometry>
        </mxCell>
        <mxCell id="Df2dGC7cskyAeFQfV9ru-42" style="edgeStyle=orthogonalEdgeStyle;rounded=0;orthogonalLoop=1;jettySize=auto;html=1;entryX=0.5;entryY=0;entryDx=0;entryDy=0;" parent="1" source="Df2dGC7cskyAeFQfV9ru-40" target="Df2dGC7cskyAeFQfV9ru-41" edge="1">
          <mxGeometry relative="1" as="geometry" />
        </mxCell>
        <mxCell id="Df2dGC7cskyAeFQfV9ru-40" value="cout &amp;lt;&amp;lt; endl &amp;lt;&amp;lt;&quot;Все королевы были успешно раставлены!&quot; &amp;lt;&amp;lt; endl &amp;lt;&amp;lt; endl;" style="shape=parallelogram;perimeter=parallelogramPerimeter;whiteSpace=wrap;html=1;fixedSize=1;" parent="1" vertex="1">
          <mxGeometry x="533.5" y="872" width="135" height="80" as="geometry" />
        </mxCell>
        <mxCell id="Df2dGC7cskyAeFQfV9ru-41" value="result = true;" style="rounded=0;whiteSpace=wrap;html=1;" parent="1" vertex="1">
          <mxGeometry x="541" y="992" width="120" height="20" as="geometry" />
        </mxCell>
        <mxCell id="Df2dGC7cskyAeFQfV9ru-43" value="1" style="text;html=1;align=center;verticalAlign=middle;whiteSpace=wrap;rounded=0;" parent="1" vertex="1">
          <mxGeometry x="620.5" y="817" width="60" height="30" as="geometry" />
        </mxCell>
        <mxCell id="Df2dGC7cskyAeFQfV9ru-44" value="" style="endArrow=none;html=1;rounded=0;" parent="1" edge="1">
          <mxGeometry width="50" height="50" relative="1" as="geometry">
            <mxPoint x="785.5" y="846.76" as="sourcePoint" />
            <mxPoint x="840.5" y="847" as="targetPoint" />
          </mxGeometry>
        </mxCell>
        <mxCell id="Df2dGC7cskyAeFQfV9ru-45" value="" style="endArrow=classic;html=1;rounded=0;" parent="1" edge="1">
          <mxGeometry width="50" height="50" relative="1" as="geometry">
            <mxPoint x="840.5" y="842" as="sourcePoint" />
            <mxPoint x="840.5" y="872" as="targetPoint" />
          </mxGeometry>
        </mxCell>
        <mxCell id="Df2dGC7cskyAeFQfV9ru-46" value="cout &amp;lt;&amp;lt; &quot;Переход на следующий ряд, создание новой итерации!&quot; &amp;lt;&amp;lt; endl &amp;lt;&amp;lt; &quot;---------------------------&quot; &amp;lt;&amp;lt; endl;" style="shape=parallelogram;perimeter=parallelogramPerimeter;whiteSpace=wrap;html=1;fixedSize=1;" parent="1" vertex="1">
          <mxGeometry x="728.25" y="872" width="224.5" height="90" as="geometry" />
        </mxCell>
        <mxCell id="Df2dGC7cskyAeFQfV9ru-47" value="" style="endArrow=classic;html=1;rounded=0;" parent="1" edge="1">
          <mxGeometry width="50" height="50" relative="1" as="geometry">
            <mxPoint x="840.26" y="962" as="sourcePoint" />
            <mxPoint x="840.5" y="992" as="targetPoint" />
          </mxGeometry>
        </mxCell>
        <mxCell id="Df2dGC7cskyAeFQfV9ru-48" value="result = PutQueens(row + 1, n, id);" style="shape=process;whiteSpace=wrap;html=1;backgroundOutline=1;" parent="1" vertex="1">
          <mxGeometry x="720.5" y="992" width="240" height="20" as="geometry" />
        </mxCell>
        <mxCell id="Df2dGC7cskyAeFQfV9ru-49" value="" style="endArrow=none;html=1;rounded=0;" parent="1" edge="1">
          <mxGeometry width="50" height="50" relative="1" as="geometry">
            <mxPoint x="600.76" y="1012" as="sourcePoint" />
            <mxPoint x="600.5" y="1032" as="targetPoint" />
          </mxGeometry>
        </mxCell>
        <mxCell id="Df2dGC7cskyAeFQfV9ru-50" value="" style="endArrow=none;html=1;rounded=0;" parent="1" edge="1">
          <mxGeometry width="50" height="50" relative="1" as="geometry">
            <mxPoint x="840.5" y="1032" as="sourcePoint" />
            <mxPoint x="840.26" y="1012" as="targetPoint" />
          </mxGeometry>
        </mxCell>
        <mxCell id="Df2dGC7cskyAeFQfV9ru-51" value="" style="endArrow=none;html=1;rounded=0;" parent="1" edge="1">
          <mxGeometry width="50" height="50" relative="1" as="geometry">
            <mxPoint x="600.5" y="1032" as="sourcePoint" />
            <mxPoint x="840.5" y="1032" as="targetPoint" />
          </mxGeometry>
        </mxCell>
        <mxCell id="Df2dGC7cskyAeFQfV9ru-52" value="0" style="text;html=1;align=center;verticalAlign=middle;whiteSpace=wrap;rounded=0;" parent="1" vertex="1">
          <mxGeometry x="765" y="817" width="60" height="30" as="geometry" />
        </mxCell>
        <mxCell id="Df2dGC7cskyAeFQfV9ru-53" value="{" style="text;html=1;align=center;verticalAlign=middle;whiteSpace=wrap;rounded=0;" parent="1" vertex="1">
          <mxGeometry x="610.5" y="847" width="20" height="30" as="geometry" />
        </mxCell>
        <mxCell id="Df2dGC7cskyAeFQfV9ru-54" value="}" style="text;html=1;align=center;verticalAlign=middle;whiteSpace=wrap;rounded=0;" parent="1" vertex="1">
          <mxGeometry x="580.5" y="1002" width="60" height="30" as="geometry" />
        </mxCell>
        <mxCell id="Df2dGC7cskyAeFQfV9ru-55" value="{" style="text;html=1;align=center;verticalAlign=middle;whiteSpace=wrap;rounded=0;" parent="1" vertex="1">
          <mxGeometry x="785.5" y="842" width="30" height="30" as="geometry" />
        </mxCell>
        <mxCell id="Df2dGC7cskyAeFQfV9ru-56" value="}" style="text;html=1;align=center;verticalAlign=middle;whiteSpace=wrap;rounded=0;" parent="1" vertex="1">
          <mxGeometry x="800.5" y="1002" width="60" height="30" as="geometry" />
        </mxCell>
        <mxCell id="Df2dGC7cskyAeFQfV9ru-58" value="1" style="text;html=1;align=center;verticalAlign=middle;whiteSpace=wrap;rounded=0;" parent="1" vertex="1">
          <mxGeometry x="665" y="320" width="60" height="30" as="geometry" />
        </mxCell>
        <mxCell id="Df2dGC7cskyAeFQfV9ru-59" value="{" style="text;html=1;align=center;verticalAlign=middle;whiteSpace=wrap;rounded=0;" parent="1" vertex="1">
          <mxGeometry x="710" y="320" width="60" height="30" as="geometry" />
        </mxCell>
        <mxCell id="Df2dGC7cskyAeFQfV9ru-60" value="if (!result)" style="rhombus;whiteSpace=wrap;html=1;" parent="1" vertex="1">
          <mxGeometry x="680" y="1047" width="80" height="80" as="geometry" />
        </mxCell>
        <mxCell id="Df2dGC7cskyAeFQfV9ru-61" value="" style="endArrow=classic;html=1;rounded=0;" parent="1" edge="1">
          <mxGeometry width="50" height="50" relative="1" as="geometry">
            <mxPoint x="720.5" y="1032" as="sourcePoint" />
            <mxPoint x="720.5" y="1047" as="targetPoint" />
          </mxGeometry>
        </mxCell>
        <mxCell id="Df2dGC7cskyAeFQfV9ru-62" value="" style="endArrow=none;html=1;rounded=0;" parent="1" edge="1">
          <mxGeometry width="50" height="50" relative="1" as="geometry">
            <mxPoint x="640" y="1087" as="sourcePoint" />
            <mxPoint x="680" y="1086.76" as="targetPoint" />
          </mxGeometry>
        </mxCell>
        <mxCell id="Df2dGC7cskyAeFQfV9ru-63" value="" style="endArrow=classic;html=1;rounded=0;" parent="1" edge="1">
          <mxGeometry width="50" height="50" relative="1" as="geometry">
            <mxPoint x="639.52" y="1087" as="sourcePoint" />
            <mxPoint x="639.52" y="1127" as="targetPoint" />
          </mxGeometry>
        </mxCell>
        <mxCell id="ceVg9Vy0MgQLvTK81oMa-13" style="edgeStyle=orthogonalEdgeStyle;rounded=0;orthogonalLoop=1;jettySize=auto;html=1;entryX=0.5;entryY=0;entryDx=0;entryDy=0;" edge="1" parent="1" source="Df2dGC7cskyAeFQfV9ru-64" target="Df2dGC7cskyAeFQfV9ru-69">
          <mxGeometry relative="1" as="geometry" />
        </mxCell>
        <mxCell id="Df2dGC7cskyAeFQfV9ru-64" value="flag = true;" style="rounded=0;whiteSpace=wrap;html=1;" parent="1" vertex="1">
          <mxGeometry x="580" y="1127" width="120" height="20" as="geometry" />
        </mxCell>
        <mxCell id="ceVg9Vy0MgQLvTK81oMa-15" style="edgeStyle=orthogonalEdgeStyle;rounded=0;orthogonalLoop=1;jettySize=auto;html=1;entryX=0.5;entryY=0;entryDx=0;entryDy=0;" edge="1" parent="1" source="Df2dGC7cskyAeFQfV9ru-65" target="ceVg9Vy0MgQLvTK81oMa-9">
          <mxGeometry relative="1" as="geometry" />
        </mxCell>
        <mxCell id="Df2dGC7cskyAeFQfV9ru-65" value="cout &amp;lt;&amp;lt; &quot;Не удалось успешно поставить королев в последующие ряды при условии, что в ряде &quot; &amp;lt;&amp;lt; row + 1 &amp;lt;&amp;lt; &quot; королева стоит на &quot; &amp;lt;&amp;lt; place + 1 &amp;lt;&amp;lt; &quot; месте&quot; &amp;lt;&amp;lt; &quot;. Пытаемся выбрать новое место&quot; &amp;lt;&amp;lt; endl &amp;lt;&amp;lt; &quot;---------------------------&quot; &amp;lt;&amp;lt; endl;" style="shape=parallelogram;perimeter=parallelogramPerimeter;whiteSpace=wrap;html=1;fixedSize=1;" parent="1" vertex="1">
          <mxGeometry x="540" y="1260" width="200" height="140" as="geometry" />
        </mxCell>
        <mxCell id="ceVg9Vy0MgQLvTK81oMa-14" style="edgeStyle=orthogonalEdgeStyle;rounded=0;orthogonalLoop=1;jettySize=auto;html=1;entryX=0.5;entryY=0;entryDx=0;entryDy=0;" edge="1" parent="1" source="Df2dGC7cskyAeFQfV9ru-69" target="Df2dGC7cskyAeFQfV9ru-65">
          <mxGeometry relative="1" as="geometry" />
        </mxCell>
        <mxCell id="Df2dGC7cskyAeFQfV9ru-69" value="removeQueen(row, place, n);" style="shape=process;whiteSpace=wrap;html=1;backgroundOutline=1;" parent="1" vertex="1">
          <mxGeometry x="535" y="1180" width="210" height="60" as="geometry" />
        </mxCell>
        <mxCell id="Df2dGC7cskyAeFQfV9ru-71" value="availablePlaces[place] = -1;" style="rounded=0;whiteSpace=wrap;html=1;" parent="1" vertex="1">
          <mxGeometry x="555" y="1529" width="170" height="20" as="geometry" />
        </mxCell>
        <mxCell id="Df2dGC7cskyAeFQfV9ru-74" value="" style="endArrow=none;html=1;rounded=0;" parent="1" edge="1">
          <mxGeometry width="50" height="50" relative="1" as="geometry">
            <mxPoint x="760" y="1086.58" as="sourcePoint" />
            <mxPoint x="840" y="1087" as="targetPoint" />
          </mxGeometry>
        </mxCell>
        <mxCell id="Df2dGC7cskyAeFQfV9ru-75" value="" style="endArrow=none;html=1;rounded=0;" parent="1" edge="1">
          <mxGeometry width="50" height="50" relative="1" as="geometry">
            <mxPoint x="840" y="1570" as="sourcePoint" />
            <mxPoint x="839" y="1090" as="targetPoint" />
          </mxGeometry>
        </mxCell>
        <mxCell id="Df2dGC7cskyAeFQfV9ru-76" value="" style="endArrow=none;html=1;rounded=0;" parent="1" edge="1">
          <mxGeometry width="50" height="50" relative="1" as="geometry">
            <mxPoint x="640.5" y="1570" as="sourcePoint" />
            <mxPoint x="840.5" y="1570" as="targetPoint" />
          </mxGeometry>
        </mxCell>
        <mxCell id="Df2dGC7cskyAeFQfV9ru-77" value="1" style="text;html=1;align=center;verticalAlign=middle;whiteSpace=wrap;rounded=0;" parent="1" vertex="1">
          <mxGeometry x="650" y="1057" width="60" height="30" as="geometry" />
        </mxCell>
        <mxCell id="Df2dGC7cskyAeFQfV9ru-78" value="0" style="text;html=1;align=center;verticalAlign=middle;whiteSpace=wrap;rounded=0;" parent="1" vertex="1">
          <mxGeometry x="725" y="1057" width="60" height="30" as="geometry" />
        </mxCell>
        <mxCell id="Df2dGC7cskyAeFQfV9ru-80" value="{" style="text;html=1;align=center;verticalAlign=middle;whiteSpace=wrap;rounded=0;" parent="1" vertex="1">
          <mxGeometry x="620" y="1097" width="60" height="30" as="geometry" />
        </mxCell>
        <mxCell id="Df2dGC7cskyAeFQfV9ru-86" value="}" style="text;html=1;align=center;verticalAlign=middle;whiteSpace=wrap;rounded=0;" parent="1" vertex="1">
          <mxGeometry x="760.5" y="1560" width="30" height="30" as="geometry" />
        </mxCell>
        <mxCell id="Df2dGC7cskyAeFQfV9ru-87" value="" style="endArrow=none;html=1;rounded=0;" parent="1" edge="1">
          <mxGeometry width="50" height="50" relative="1" as="geometry">
            <mxPoint x="440" y="1590" as="sourcePoint" />
            <mxPoint x="440" y="320" as="targetPoint" />
          </mxGeometry>
        </mxCell>
        <mxCell id="Df2dGC7cskyAeFQfV9ru-88" value="" style="endArrow=none;html=1;rounded=0;" parent="1" edge="1">
          <mxGeometry width="50" height="50" relative="1" as="geometry">
            <mxPoint x="440" y="320" as="sourcePoint" />
            <mxPoint x="540" y="320" as="targetPoint" />
          </mxGeometry>
        </mxCell>
        <mxCell id="Df2dGC7cskyAeFQfV9ru-89" value="" style="endArrow=none;html=1;rounded=0;" parent="1" edge="1">
          <mxGeometry width="50" height="50" relative="1" as="geometry">
            <mxPoint x="540.5" y="320" as="sourcePoint" />
            <mxPoint x="540.5" y="230" as="targetPoint" />
          </mxGeometry>
        </mxCell>
        <mxCell id="Df2dGC7cskyAeFQfV9ru-90" value="" style="endArrow=classic;html=1;rounded=0;" parent="1" edge="1">
          <mxGeometry width="50" height="50" relative="1" as="geometry">
            <mxPoint x="540" y="230" as="sourcePoint" />
            <mxPoint x="720" y="230" as="targetPoint" />
          </mxGeometry>
        </mxCell>
        <mxCell id="Df2dGC7cskyAeFQfV9ru-91" value="" style="endArrow=none;html=1;rounded=0;" parent="1" edge="1">
          <mxGeometry width="50" height="50" relative="1" as="geometry">
            <mxPoint x="880" y="280" as="sourcePoint" />
            <mxPoint x="1040" y="280" as="targetPoint" />
          </mxGeometry>
        </mxCell>
        <mxCell id="Df2dGC7cskyAeFQfV9ru-92" value="if (!result &amp;amp;&amp;amp; !flag)" style="rhombus;whiteSpace=wrap;html=1;" parent="1" vertex="1">
          <mxGeometry x="980" y="320" width="120" height="80" as="geometry" />
        </mxCell>
        <mxCell id="Df2dGC7cskyAeFQfV9ru-93" value="" style="endArrow=classic;html=1;rounded=0;" parent="1" edge="1">
          <mxGeometry width="50" height="50" relative="1" as="geometry">
            <mxPoint x="1039.66" y="280" as="sourcePoint" />
            <mxPoint x="1040" y="320" as="targetPoint" />
          </mxGeometry>
        </mxCell>
        <mxCell id="Df2dGC7cskyAeFQfV9ru-94" value="" style="endArrow=none;html=1;rounded=0;" parent="1" edge="1">
          <mxGeometry width="50" height="50" relative="1" as="geometry">
            <mxPoint x="960" y="360" as="sourcePoint" />
            <mxPoint x="980" y="360" as="targetPoint" />
          </mxGeometry>
        </mxCell>
        <mxCell id="Df2dGC7cskyAeFQfV9ru-95" value="1" style="text;html=1;align=center;verticalAlign=middle;whiteSpace=wrap;rounded=0;" parent="1" vertex="1">
          <mxGeometry x="950" y="330" width="60" height="30" as="geometry" />
        </mxCell>
        <mxCell id="Df2dGC7cskyAeFQfV9ru-96" value="" style="endArrow=none;html=1;rounded=0;" parent="1" edge="1">
          <mxGeometry width="50" height="50" relative="1" as="geometry">
            <mxPoint x="1100" y="359.31" as="sourcePoint" />
            <mxPoint x="1120" y="359" as="targetPoint" />
          </mxGeometry>
        </mxCell>
        <mxCell id="Df2dGC7cskyAeFQfV9ru-97" value="0" style="text;html=1;align=center;verticalAlign=middle;whiteSpace=wrap;rounded=0;" parent="1" vertex="1">
          <mxGeometry x="1080" y="330" width="60" height="30" as="geometry" />
        </mxCell>
        <mxCell id="Df2dGC7cskyAeFQfV9ru-98" value="" style="endArrow=classic;html=1;rounded=0;" parent="1" edge="1">
          <mxGeometry width="50" height="50" relative="1" as="geometry">
            <mxPoint x="960" y="360" as="sourcePoint" />
            <mxPoint x="960" y="440" as="targetPoint" />
          </mxGeometry>
        </mxCell>
        <mxCell id="Df2dGC7cskyAeFQfV9ru-99" value="cout &amp;lt;&amp;lt; &quot;Не удалось успешно поставить королеву в ряд &quot; &amp;lt;&amp;lt; row + 1 &amp;lt;&amp;lt; &quot;. Возвращаемся на предыдущий ряд &quot; &amp;lt;&amp;lt; &quot;(&quot; &amp;lt;&amp;lt; row &amp;lt;&amp;lt; &quot;)&quot; &amp;lt;&amp;lt; &quot; (id, в который вернемся:&amp;nbsp; &quot; &amp;lt;&amp;lt; rootId &amp;lt;&amp;lt; &quot;)&quot; &amp;lt;&amp;lt; endl &amp;lt;&amp;lt; &quot;---------------------------&quot; &amp;lt;&amp;lt; endl;" style="shape=parallelogram;perimeter=parallelogramPerimeter;whiteSpace=wrap;html=1;fixedSize=1;" parent="1" vertex="1">
          <mxGeometry x="880" y="440" width="170" height="150" as="geometry" />
        </mxCell>
        <mxCell id="Df2dGC7cskyAeFQfV9ru-100" value="" style="endArrow=none;html=1;rounded=0;" parent="1" edge="1">
          <mxGeometry width="50" height="50" relative="1" as="geometry">
            <mxPoint x="960" y="640" as="sourcePoint" />
            <mxPoint x="960" y="590" as="targetPoint" />
          </mxGeometry>
        </mxCell>
        <mxCell id="Df2dGC7cskyAeFQfV9ru-101" value="" style="endArrow=none;html=1;rounded=0;" parent="1" edge="1">
          <mxGeometry width="50" height="50" relative="1" as="geometry">
            <mxPoint x="1120" y="640" as="sourcePoint" />
            <mxPoint x="1120" y="360" as="targetPoint" />
          </mxGeometry>
        </mxCell>
        <mxCell id="Df2dGC7cskyAeFQfV9ru-102" value="" style="endArrow=none;html=1;rounded=0;" parent="1" edge="1">
          <mxGeometry width="50" height="50" relative="1" as="geometry">
            <mxPoint x="960" y="640" as="sourcePoint" />
            <mxPoint x="1120" y="640" as="targetPoint" />
          </mxGeometry>
        </mxCell>
        <mxCell id="Df2dGC7cskyAeFQfV9ru-103" value="" style="endArrow=classic;html=1;rounded=0;" parent="1" edge="1">
          <mxGeometry width="50" height="50" relative="1" as="geometry">
            <mxPoint x="1039.66" y="640" as="sourcePoint" />
            <mxPoint x="1039.66" y="680" as="targetPoint" />
          </mxGeometry>
        </mxCell>
        <mxCell id="Df2dGC7cskyAeFQfV9ru-104" value="return result;" style="ellipse;whiteSpace=wrap;html=1;" parent="1" vertex="1">
          <mxGeometry x="980" y="740" width="120" height="30" as="geometry" />
        </mxCell>
        <mxCell id="Df2dGC7cskyAeFQfV9ru-105" value="}" style="text;html=1;align=center;verticalAlign=middle;whiteSpace=wrap;rounded=0;" parent="1" vertex="1">
          <mxGeometry x="1040" y="770" width="20" height="30" as="geometry" />
        </mxCell>
        <mxCell id="ceVg9Vy0MgQLvTK81oMa-5" style="edgeStyle=orthogonalEdgeStyle;rounded=0;orthogonalLoop=1;jettySize=auto;html=1;entryX=0.5;entryY=0;entryDx=0;entryDy=0;" edge="1" parent="1" source="ceVg9Vy0MgQLvTK81oMa-1" target="ceVg9Vy0MgQLvTK81oMa-3">
          <mxGeometry relative="1" as="geometry" />
        </mxCell>
        <mxCell id="ceVg9Vy0MgQLvTK81oMa-1" value="PrintOutBoard(Board, n);" style="shape=process;whiteSpace=wrap;html=1;backgroundOutline=1;" vertex="1" parent="1">
          <mxGeometry x="645.5" y="695" width="150" height="40" as="geometry" />
        </mxCell>
        <mxCell id="ceVg9Vy0MgQLvTK81oMa-6" style="edgeStyle=orthogonalEdgeStyle;rounded=0;orthogonalLoop=1;jettySize=auto;html=1;entryX=0.5;entryY=0;entryDx=0;entryDy=0;" edge="1" parent="1" source="ceVg9Vy0MgQLvTK81oMa-3" target="Df2dGC7cskyAeFQfV9ru-36">
          <mxGeometry relative="1" as="geometry" />
        </mxCell>
        <mxCell id="ceVg9Vy0MgQLvTK81oMa-3" value="cout &amp;lt;&amp;lt; endl &amp;lt;&amp;lt; endl;" style="shape=parallelogram;perimeter=parallelogramPerimeter;whiteSpace=wrap;html=1;fixedSize=1;" vertex="1" parent="1">
          <mxGeometry x="645.5" y="770" width="150" height="30" as="geometry" />
        </mxCell>
        <mxCell id="ceVg9Vy0MgQLvTK81oMa-7" value="" style="endArrow=none;html=1;rounded=0;" edge="1" parent="1">
          <mxGeometry width="50" height="50" relative="1" as="geometry">
            <mxPoint x="759.6" y="1590" as="sourcePoint" />
            <mxPoint x="759.6" y="1570" as="targetPoint" />
          </mxGeometry>
        </mxCell>
        <mxCell id="ceVg9Vy0MgQLvTK81oMa-8" value="" style="endArrow=none;html=1;rounded=0;" edge="1" parent="1">
          <mxGeometry width="50" height="50" relative="1" as="geometry">
            <mxPoint x="440" y="1590" as="sourcePoint" />
            <mxPoint x="760" y="1590" as="targetPoint" />
          </mxGeometry>
        </mxCell>
        <mxCell id="ceVg9Vy0MgQLvTK81oMa-17" style="edgeStyle=orthogonalEdgeStyle;rounded=0;orthogonalLoop=1;jettySize=auto;html=1;entryX=0.5;entryY=0;entryDx=0;entryDy=0;" edge="1" parent="1" source="ceVg9Vy0MgQLvTK81oMa-9" target="ceVg9Vy0MgQLvTK81oMa-16">
          <mxGeometry relative="1" as="geometry" />
        </mxCell>
        <mxCell id="ceVg9Vy0MgQLvTK81oMa-9" value="PrintOutBoard(Board, n);" style="shape=process;whiteSpace=wrap;html=1;backgroundOutline=1;" vertex="1" parent="1">
          <mxGeometry x="565.5" y="1430" width="149" height="40" as="geometry" />
        </mxCell>
        <mxCell id="ceVg9Vy0MgQLvTK81oMa-18" style="edgeStyle=orthogonalEdgeStyle;rounded=0;orthogonalLoop=1;jettySize=auto;html=1;entryX=0.5;entryY=0;entryDx=0;entryDy=0;" edge="1" parent="1" source="ceVg9Vy0MgQLvTK81oMa-16" target="Df2dGC7cskyAeFQfV9ru-71">
          <mxGeometry relative="1" as="geometry" />
        </mxCell>
        <mxCell id="ceVg9Vy0MgQLvTK81oMa-16" value="cout &amp;lt;&amp;lt; &quot;---------------------------&quot; &amp;lt;&amp;lt; endl;" style="shape=parallelogram;perimeter=parallelogramPerimeter;whiteSpace=wrap;html=1;fixedSize=1;" vertex="1" parent="1">
          <mxGeometry x="520" y="1490" width="240" height="20" as="geometry" />
        </mxCell>
        <mxCell id="ceVg9Vy0MgQLvTK81oMa-19" value="" style="endArrow=none;html=1;rounded=0;" edge="1" parent="1">
          <mxGeometry width="50" height="50" relative="1" as="geometry">
            <mxPoint x="640" y="1570" as="sourcePoint" />
            <mxPoint x="639.8" y="1549" as="targetPoint" />
          </mxGeometry>
        </mxCell>
        <mxCell id="ceVg9Vy0MgQLvTK81oMa-20" value="}" style="text;html=1;align=center;verticalAlign=middle;whiteSpace=wrap;rounded=0;" vertex="1" parent="1">
          <mxGeometry x="640.5" y="1540" width="17" height="30" as="geometry" />
        </mxCell>
        <mxCell id="ceVg9Vy0MgQLvTK81oMa-22" style="edgeStyle=orthogonalEdgeStyle;rounded=0;orthogonalLoop=1;jettySize=auto;html=1;entryX=0.5;entryY=0;entryDx=0;entryDy=0;" edge="1" parent="1" source="ceVg9Vy0MgQLvTK81oMa-21" target="Df2dGC7cskyAeFQfV9ru-104">
          <mxGeometry relative="1" as="geometry" />
        </mxCell>
        <mxCell id="ceVg9Vy0MgQLvTK81oMa-21" value="delete[] availablePlaces;" style="rounded=0;whiteSpace=wrap;html=1;" vertex="1" parent="1">
          <mxGeometry x="969.5" y="680" width="140" height="30" as="geometry" />
        </mxCell>
        <mxCell id="ceVg9Vy0MgQLvTK81oMa-25" value="{" style="text;html=1;align=center;verticalAlign=middle;whiteSpace=wrap;rounded=0;" vertex="1" parent="1">
          <mxGeometry x="960.5" y="410" width="60" height="30" as="geometry" />
        </mxCell>
        <mxCell id="ceVg9Vy0MgQLvTK81oMa-26" value="}" style="text;html=1;align=center;verticalAlign=middle;whiteSpace=wrap;rounded=0;" vertex="1" parent="1">
          <mxGeometry x="969.5" y="590" width="60" height="30" as="geometry" />
        </mxCell>
        <mxCell id="ceVg9Vy0MgQLvTK81oMa-27" value="0" style="text;html=1;align=center;verticalAlign=middle;whiteSpace=wrap;rounded=0;" vertex="1" parent="1">
          <mxGeometry x="460" y="180" width="30" height="30" as="geometry" />
        </mxCell>
        <mxCell id="ceVg9Vy0MgQLvTK81oMa-28" value="0" style="text;html=1;align=center;verticalAlign=middle;whiteSpace=wrap;rounded=0;" vertex="1" parent="1">
          <mxGeometry x="870" y="250" width="30" height="30" as="geometry" />
        </mxCell>
      </root>
    </mxGraphModel>
  </diagram>
</mxfile>
